<svg width="214" height="45" viewBox="0 0 214 45" fill="none" xmlns="http://www.w3.org/2000/svg">
<path d="M20.0256 19.502H15.054C14.9877 18.9916 14.8518 18.5309 14.6463 18.1199C14.4408 17.7089 14.169 17.3576 13.831 17.0659C13.4929 16.7743 13.0919 16.5522 12.6278 16.3997C12.1705 16.2406 11.6634 16.1611 11.1065 16.1611C10.1188 16.1611 9.26705 16.403 8.55114 16.887C7.84186 17.3709 7.29498 18.0702 6.91051 18.985C6.53267 19.8997 6.34375 21.0067 6.34375 22.306C6.34375 23.6583 6.53598 24.7918 6.92045 25.7066C7.31155 26.6147 7.85843 27.3008 8.56108 27.7648C9.27036 28.2222 10.1089 28.4509 11.0767 28.4509C11.6203 28.4509 12.1141 28.3813 12.5582 28.2421C13.009 28.1029 13.4034 27.9007 13.7415 27.6355C14.0862 27.3638 14.3679 27.0356 14.5866 26.6512C14.812 26.2601 14.9678 25.8192 15.054 25.3287L20.0256 25.3585C19.9394 26.2601 19.6776 27.1483 19.2401 28.0233C18.8092 28.8983 18.2159 29.6971 17.4602 30.4196C16.7045 31.1355 15.7831 31.7056 14.696 32.1298C13.6155 32.5541 12.3759 32.7662 10.9773 32.7662C9.13447 32.7662 7.4839 32.3619 6.02557 31.5531C4.57386 30.7378 3.42708 29.5513 2.58523 27.9935C1.74337 26.4357 1.32244 24.5399 1.32244 22.306C1.32244 20.0655 1.75 18.1663 2.60511 16.6085C3.46023 15.0508 4.61695 13.8675 6.07528 13.0588C7.53362 12.2501 9.16761 11.8458 10.9773 11.8458C12.2102 11.8458 13.3504 12.0181 14.3977 12.3628C15.4451 12.7009 16.3665 13.198 17.1619 13.8543C17.9574 14.5039 18.6037 15.3027 19.1009 16.2506C19.598 17.1985 19.9062 18.2823 20.0256 19.502ZM22.842 32.4878V12.1242H27.7638V20.2975H35.788V12.1242H40.6999V32.4878H35.788V24.3046H27.7638V32.4878H22.842ZM48.1921 32.4878H42.9023L49.7731 12.1242H56.3256L63.1964 32.4878H57.9066L53.1239 17.2548H52.9648L48.1921 32.4878ZM47.4862 24.4736H58.543V28.2122H47.4862V24.4736ZM65.3888 12.1242H71.484L76.6545 24.7321H76.8931L82.0636 12.1242H88.1587V32.4878H83.3661V19.9793H83.1971L78.305 32.3585H75.2425L70.3505 19.9097H70.1815V32.4878H65.3888V12.1242ZM91.2287 32.4878V12.1242H99.6406C101.165 12.1242 102.481 12.4225 103.588 13.0191C104.702 13.609 105.56 14.4343 106.163 15.4949C106.767 16.5489 107.068 17.7752 107.068 19.1739C107.068 20.5792 106.76 21.8088 106.143 22.8628C105.534 23.9102 104.662 24.7222 103.528 25.2989C102.395 25.8756 101.049 26.1639 99.4915 26.1639H94.3011V22.2861H98.5767C99.3191 22.2861 99.9389 22.1568 100.436 21.8983C100.94 21.6398 101.321 21.2785 101.58 20.8145C101.838 20.3439 101.967 19.797 101.967 19.1739C101.967 18.5441 101.838 18.0006 101.58 17.5432C101.321 17.0792 100.94 16.7212 100.436 16.4693C99.9323 16.2174 99.3125 16.0915 98.5767 16.0915H96.1506V32.4878H91.2287ZM114.416 12.1242V32.4878H109.494V12.1242H114.416ZM182.962 12.1242V32.4878H178.786L170.682 20.735H170.553V32.4878H165.631V12.1242H169.867L177.881 23.8571H178.05V12.1242H182.962Z" fill="white"/>
<ellipse cx="140.103" cy="22.5" rx="22.1033" ry="22.5" fill="#525252"/>
<path d="M140.104 30.6034L152.851 36.5647L149.301 24.8561L160.342 16.6677L145.614 15.9851L139.682 5.00239L134.116 16.2509L119.422 17.6136L130.724 25.2855L127.562 37.1493L140.104 30.6034Z" fill="#FFBF1C"/>
</svg>
