<svg width="214" height="45" viewBox="0 0 214 45" fill="none" xmlns="http://www.w3.org/2000/svg">
<path d="M20.0256 19.502H15.054C14.9877 18.9916 14.8518 18.5309 14.6463 18.1199C14.4408 17.7089 14.169 17.3576 13.831 17.0659C13.4929 16.7743 13.0919 16.5522 12.6278 16.3997C12.1705 16.2406 11.6634 16.1611 11.1065 16.1611C10.1188 16.1611 9.26705 16.403 8.55114 16.8869C7.84186 17.3708 7.29498 18.0702 6.91051 18.985C6.53267 19.8997 6.34375 21.0067 6.34375 22.306C6.34375 23.6582 6.53598 24.7918 6.92045 25.7065C7.31155 26.6147 7.85843 27.3008 8.56108 27.7648C9.27036 28.2222 10.1089 28.4509 11.0767 28.4509C11.6203 28.4509 12.1141 28.3813 12.5582 28.2421C13.009 28.1028 13.4034 27.9007 13.7415 27.6355C14.0862 27.3637 14.3679 27.0356 14.5866 26.6511C14.812 26.26 14.9678 25.8192 15.054 25.3287L20.0256 25.3585C19.9394 26.26 19.6776 27.1483 19.2401 28.0233C18.8092 28.8983 18.2159 29.6971 17.4602 30.4196C16.7045 31.1355 15.7831 31.7056 14.696 32.1298C13.6155 32.5541 12.3759 32.7662 10.9773 32.7662C9.13447 32.7662 7.4839 32.3618 6.02557 31.5531C4.57386 30.7378 3.42708 29.5512 2.58523 27.9935C1.74337 26.4357 1.32244 24.5399 1.32244 22.306C1.32244 20.0654 1.75 18.1663 2.60511 16.6085C3.46023 15.0508 4.61695 13.8675 6.07528 13.0588C7.53362 12.2501 9.16761 11.8457 10.9773 11.8457C12.2102 11.8457 13.3504 12.0181 14.3977 12.3628C15.4451 12.7009 16.3665 13.198 17.1619 13.8543C17.9574 14.5039 18.6037 15.3027 19.1009 16.2506C19.598 17.1985 19.9062 18.2823 20.0256 19.502ZM22.842 32.4878V12.1242H27.7638V20.2975H35.788V12.1242H40.6999V32.4878H35.788V24.3046H27.7638V32.4878H22.842ZM48.1921 32.4878H42.9023L49.7731 12.1242H56.3256L63.1964 32.4878H57.9066L53.1239 17.2548H52.9648L48.1921 32.4878ZM47.4862 24.4736H58.543V28.2122H47.4862V24.4736ZM65.3888 12.1242H71.484L76.6545 24.7321H76.8931L82.0636 12.1242H88.1587V32.4878H83.3661V19.9793H83.1971L78.305 32.3585H75.2425L70.3505 19.9097H70.1815V32.4878H65.3888V12.1242ZM91.2287 32.4878V12.1242H99.6406C101.165 12.1242 102.481 12.4225 103.588 13.019C104.702 13.609 105.56 14.4343 106.163 15.4949C106.767 16.5489 107.068 17.7752 107.068 19.1739C107.068 20.5792 106.76 21.8088 106.143 22.8628C105.534 23.9101 104.662 24.7222 103.528 25.2989C102.395 25.8756 101.049 26.1639 99.4915 26.1639H94.3011V22.2861H98.5767C99.3191 22.2861 99.9389 22.1568 100.436 21.8983C100.94 21.6398 101.321 21.2785 101.58 20.8145C101.838 20.3439 101.967 19.797 101.967 19.1739C101.967 18.5441 101.838 18.0006 101.58 17.5432C101.321 17.0792 100.94 16.7212 100.436 16.4693C99.9323 16.2174 99.3125 16.0915 98.5767 16.0915H96.1506V32.4878H91.2287ZM114.416 12.1242V32.4878H109.494V12.1242H114.416ZM182.962 12.1242V32.4878H178.786L170.682 20.735H170.553V32.4878H165.631V12.1242H169.867L177.881 23.8571H178.05V12.1242H182.962Z" fill="#525252"/>
<path d="M20.0256 19.502V20.502H21.1282L21.0208 19.4046L20.0256 19.502ZM15.054 19.502L14.0623 19.6308L14.1754 20.502H15.054V19.502ZM14.6463 18.1199L13.7519 18.5671L13.7519 18.5671L14.6463 18.1199ZM13.831 17.0659L14.4842 16.3088L14.4842 16.3088L13.831 17.0659ZM12.6278 16.3997L12.2993 17.3442L12.3075 17.3471L12.3157 17.3498L12.6278 16.3997ZM8.55114 16.8869L7.99113 16.0584L7.98756 16.0609L8.55114 16.8869ZM6.91051 18.985L5.98861 18.5975L5.98625 18.6032L6.91051 18.985ZM6.92045 25.7065L5.99853 26.094L6.002 26.1021L6.92045 25.7065ZM8.56108 27.7648L8.00999 28.5993L8.01913 28.6052L8.56108 27.7648ZM12.5582 28.2421L12.2632 27.2866L12.2592 27.2878L12.5582 28.2421ZM13.7415 27.6355L14.3586 28.4224L14.3606 28.4208L13.7415 27.6355ZM14.5866 26.6511L13.7202 26.1518L13.7175 26.1566L14.5866 26.6511ZM15.054 25.3287L15.06 24.3287L14.2152 24.3237L14.0691 25.1557L15.054 25.3287ZM20.0256 25.3585L21.021 25.4537L21.1251 24.3651L20.0316 24.3585L20.0256 25.3585ZM19.2401 28.0233L18.3456 27.5761L18.3429 27.5815L19.2401 28.0233ZM17.4602 30.4196L18.148 31.1456L18.1513 31.1424L17.4602 30.4196ZM14.696 32.1298L14.3325 31.1983L14.3305 31.199L14.696 32.1298ZM6.02557 31.5531L5.53587 32.425L5.5406 32.4277L6.02557 31.5531ZM2.58523 27.9935L3.46498 27.518L2.58523 27.9935ZM2.60511 16.6085L1.7285 16.1273L1.7285 16.1273L2.60511 16.6085ZM14.3977 12.3628L14.0851 13.3127L14.0905 13.3144L14.3977 12.3628ZM17.1619 13.8543L16.5255 14.6257L16.5294 14.6288L17.1619 13.8543ZM20.0256 18.502H15.054V20.502H20.0256V18.502ZM16.0456 19.3732C15.9667 18.7652 15.8018 18.1949 15.5407 17.6727L13.7519 18.5671C13.9018 18.8669 14.0087 19.218 14.0623 19.6308L16.0456 19.3732ZM15.5407 17.6727C15.2779 17.147 14.9253 16.6893 14.4842 16.3088L13.1777 17.8231C13.4128 18.0259 13.6037 18.2708 13.7519 18.5671L15.5407 17.6727ZM14.4842 16.3088C14.0373 15.9232 13.5175 15.6394 12.94 15.4497L12.3157 17.3498C12.6662 17.4649 12.9485 17.6253 13.1777 17.8231L14.4842 16.3088ZM12.9564 15.4552C12.3788 15.2543 11.7587 15.1611 11.1065 15.1611V17.1611C11.568 17.1611 11.9621 17.2269 12.2993 17.3442L12.9564 15.4552ZM11.1065 15.1611C9.94869 15.1611 8.89523 15.4473 7.99114 16.0584L9.11114 17.7154C9.63886 17.3587 10.289 17.1611 11.1065 17.1611V15.1611ZM7.98756 16.0609C7.09548 16.6695 6.43587 17.5334 5.98862 18.5975L7.8324 19.3724C8.15409 18.607 8.58824 18.0722 9.11471 17.713L7.98756 16.0609ZM5.98625 18.6032C5.54543 19.6704 5.34375 20.9147 5.34375 22.306H7.34375C7.34375 21.0988 7.51991 20.129 7.83477 19.3667L5.98625 18.6032ZM5.34375 22.306C5.34375 23.746 5.54749 25.0207 5.99857 26.094L7.84234 25.3191C7.52448 24.5628 7.34375 23.5705 7.34375 22.306H5.34375ZM6.002 26.1021C6.45648 27.1574 7.11808 28.0102 8.01002 28.5992L9.11214 26.9303C8.59878 26.5913 8.16662 26.072 7.8389 25.311L6.002 26.1021ZM8.01913 28.6052C8.91267 29.1814 9.94559 29.4509 11.0767 29.4509V27.4509C10.2722 27.4509 9.62805 27.2629 9.10303 26.9244L8.01913 28.6052ZM11.0767 29.4509C11.7051 29.4509 12.3017 29.3704 12.8573 29.1963L12.2592 27.2878C11.9265 27.3921 11.5354 27.4509 11.0767 27.4509V29.4509ZM12.8533 29.1975C13.4094 29.0258 13.9154 28.77 14.3586 28.4224L13.1243 26.8487C12.8914 27.0313 12.6086 27.1799 12.2632 27.2866L12.8533 29.1975ZM14.3606 28.4208C14.8074 28.0685 15.1738 27.6414 15.4558 27.1457L13.7175 26.1566C13.562 26.4298 13.3649 26.659 13.1223 26.8503L14.3606 28.4208ZM15.4531 27.1504C15.7424 26.6484 15.9346 26.0953 16.0389 25.5017L14.0691 25.1557C14.001 25.5432 13.8817 25.8717 13.7202 26.1518L15.4531 27.1504ZM15.048 26.3287L20.0196 26.3585L20.0316 24.3585L15.06 24.3287L15.048 26.3287ZM19.0301 25.2634C18.9566 26.0328 18.7325 26.8023 18.3456 27.5761L20.1345 28.4705C20.6226 27.4943 20.9222 26.4873 21.021 25.4537L19.0301 25.2634ZM18.3429 27.5815C17.9674 28.3442 17.4463 29.0493 16.7691 29.6968L18.1513 31.1424C18.9855 30.3448 19.651 29.4524 20.1372 28.4651L18.3429 27.5815ZM16.7725 29.6937C16.1213 30.3106 15.3138 30.8153 14.3325 31.1983L15.0596 33.0614C16.2525 32.5959 17.2878 31.9604 18.148 31.1456L16.7725 29.6937ZM14.3305 31.199C13.3877 31.5692 12.2758 31.7662 10.9773 31.7662V33.7662C12.476 33.7662 13.8434 33.5389 15.0615 33.0607L14.3305 31.199ZM10.9773 31.7662C9.28592 31.7662 7.80531 31.3966 6.51054 30.6786L5.5406 32.4277C7.16249 33.3271 8.98302 33.7662 10.9773 33.7662V31.7662ZM6.51526 30.6812C5.23906 29.9645 4.22289 28.9205 3.46498 27.518L1.70548 28.4689C2.63128 30.182 3.90867 31.5111 5.53587 32.425L6.51526 30.6812ZM3.46498 27.518C2.72006 26.1396 2.32244 24.4164 2.32244 22.306H0.322443C0.322443 24.6633 0.766682 26.7318 1.70548 28.4689L3.46498 27.518ZM2.32244 22.306C2.32244 20.1906 2.72602 18.4664 3.48172 17.0897L1.7285 16.1273C0.773983 17.8662 0.322443 19.9403 0.322443 22.306H2.32244ZM3.48172 17.0897C4.25225 15.6861 5.27793 14.6445 6.56025 13.9333L5.59032 12.1843C3.95597 13.0906 2.66821 14.4155 1.7285 16.1273L3.48172 17.0897ZM6.56025 13.9333C7.85772 13.2138 9.32244 12.8457 10.9773 12.8457V10.8457C9.01279 10.8457 7.20952 11.2864 5.59032 12.1843L6.56025 13.9333ZM10.9773 12.8457C12.1164 12.8457 13.1498 13.0048 14.0851 13.3127L14.7103 11.4129C13.551 11.0313 12.304 10.8457 10.9773 10.8457V12.8457ZM14.0905 13.3144C15.0259 13.6164 15.8339 14.055 16.5255 14.6256L17.7983 13.0829C16.8991 12.341 15.8642 11.7854 14.7049 11.4111L14.0905 13.3144ZM16.5294 14.6288C17.2161 15.1896 17.778 15.8813 18.2153 16.715L19.9864 15.7861C19.4294 14.724 18.6987 13.8182 17.7945 13.0797L16.5294 14.6288ZM18.2153 16.715C18.6445 17.5335 18.9217 18.4895 19.0303 19.5994L21.0208 19.4046C20.8908 18.0751 20.5515 16.8635 19.9864 15.7861L18.2153 16.715ZM22.842 32.4878H21.842V33.4878H22.842V32.4878ZM22.842 12.1242V11.1242H21.842V12.1242H22.842ZM27.7638 12.1242H28.7638V11.1242H27.7638V12.1242ZM27.7638 20.2975H26.7638V21.2975H27.7638V20.2975ZM35.788 20.2975V21.2975H36.788V20.2975H35.788ZM35.788 12.1242V11.1242H34.788V12.1242H35.788ZM40.6999 12.1242H41.6999V11.1242H40.6999V12.1242ZM40.6999 32.4878V33.4878H41.6999V32.4878H40.6999ZM35.788 32.4878H34.788V33.4878H35.788V32.4878ZM35.788 24.3046H36.788V23.3046H35.788V24.3046ZM27.7638 24.3046V23.3046H26.7638V24.3046H27.7638ZM27.7638 32.4878V33.4878H28.7638V32.4878H27.7638ZM23.842 32.4878V12.1242H21.842V32.4878H23.842ZM22.842 13.1242H27.7638V11.1242H22.842V13.1242ZM26.7638 12.1242V20.2975H28.7638V12.1242H26.7638ZM27.7638 21.2975H35.788V19.2975H27.7638V21.2975ZM36.788 20.2975V12.1242H34.788V20.2975H36.788ZM35.788 13.1242H40.6999V11.1242H35.788V13.1242ZM39.6999 12.1242V32.4878H41.6999V12.1242H39.6999ZM40.6999 31.4878H35.788V33.4878H40.6999V31.4878ZM36.788 32.4878V24.3046H34.788V32.4878H36.788ZM35.788 23.3046H27.7638V25.3046H35.788V23.3046ZM26.7638 24.3046V32.4878H28.7638V24.3046H26.7638ZM27.7638 31.4878H22.842V33.4878H27.7638V31.4878ZM48.1921 32.4878V33.4878H48.9267L49.1464 32.7868L48.1921 32.4878ZM42.9023 32.4878L41.9548 32.1681L41.5096 33.4878H42.9023V32.4878ZM49.7731 12.1242V11.1242H49.0551L48.8256 11.8045L49.7731 12.1242ZM56.3256 12.1242L57.2732 11.8045L57.0436 11.1242H56.3256V12.1242ZM63.1964 32.4878V33.4878H64.5892L64.1439 32.1681L63.1964 32.4878ZM57.9066 32.4878L56.9525 32.7873L57.1724 33.4878H57.9066V32.4878ZM53.1239 17.2548L54.078 16.9553L53.8581 16.2548H53.1239V17.2548ZM52.9648 17.2548V16.2548H52.2302L52.0106 16.9559L52.9648 17.2548ZM47.4862 24.4736V23.4736H46.4862V24.4736H47.4862ZM58.543 24.4736H59.543V23.4736H58.543V24.4736ZM58.543 28.2122V29.2122H59.543V28.2122H58.543ZM47.4862 28.2122H46.4862V29.2122H47.4862V28.2122ZM48.1921 31.4878H42.9023V33.4878H48.1921V31.4878ZM43.8499 32.8075L50.7206 12.4439L48.8256 11.8045L41.9548 32.1681L43.8499 32.8075ZM49.7731 13.1242H56.3256V11.1242H49.7731V13.1242ZM55.3781 12.4439L62.2489 32.8075L64.1439 32.1681L57.2732 11.8045L55.3781 12.4439ZM63.1964 31.4878H57.9066V33.4878H63.1964V31.4878ZM58.8607 32.1882L54.078 16.9553L52.1699 17.5544L56.9525 32.7873L58.8607 32.1882ZM53.1239 16.2548H52.9648V18.2548H53.1239V16.2548ZM52.0106 16.9559L47.2379 32.1888L49.1464 32.7868L53.9191 17.5538L52.0106 16.9559ZM47.4862 25.4736H58.543V23.4736H47.4862V25.4736ZM57.543 24.4736V28.2122H59.543V24.4736H57.543ZM58.543 27.2122H47.4862V29.2122H58.543V27.2122ZM48.4862 28.2122V24.4736H46.4862V28.2122H48.4862ZM65.3888 12.1242V11.1242H64.3888V12.1242H65.3888ZM71.484 12.1242L72.4092 11.7447L72.1547 11.1242H71.484V12.1242ZM76.6545 24.7321L75.7293 25.1115L75.9837 25.7321H76.6545V24.7321ZM76.8931 24.7321V25.7321H77.5638L77.8183 25.1115L76.8931 24.7321ZM82.0636 12.1242V11.1242H81.3928L81.1383 11.7447L82.0636 12.1242ZM88.1587 12.1242H89.1587V11.1242H88.1587V12.1242ZM88.1587 32.4878V33.4878H89.1587V32.4878H88.1587ZM83.3661 32.4878H82.3661V33.4878H83.3661V32.4878ZM83.3661 19.9793H84.3661V18.9793H83.3661V19.9793ZM83.1971 19.9793V18.9793H82.517L82.2671 19.6117L83.1971 19.9793ZM78.305 32.3585V33.3585H78.9851L79.2351 32.7261L78.305 32.3585ZM75.2425 32.3585L74.3118 32.7243L74.5611 33.3585H75.2425V32.3585ZM70.3505 19.9097L71.2812 19.5439L71.032 18.9097H70.3505V19.9097ZM70.1815 19.9097V18.9097H69.1815V19.9097H70.1815ZM70.1815 32.4878V33.4878H71.1815V32.4878H70.1815ZM65.3888 32.4878H64.3888V33.4878H65.3888V32.4878ZM65.3888 13.1242H71.484V11.1242H65.3888V13.1242ZM70.5588 12.5036L75.7293 25.1115L77.5797 24.3527L72.4092 11.7447L70.5588 12.5036ZM76.6545 25.7321H76.8931V23.7321H76.6545V25.7321ZM77.8183 25.1115L82.9888 12.5036L81.1383 11.7447L75.9679 24.3527L77.8183 25.1115ZM82.0636 13.1242H88.1587V11.1242H82.0636V13.1242ZM87.1587 12.1242V32.4878H89.1587V12.1242H87.1587ZM88.1587 31.4878H83.3661V33.4878H88.1587V31.4878ZM84.3661 32.4878V19.9793H82.3661V32.4878H84.3661ZM83.3661 18.9793H83.1971V20.9793H83.3661V18.9793ZM82.2671 19.6117L77.375 31.991L79.2351 32.7261L84.1271 20.3468L82.2671 19.6117ZM78.305 31.3585H75.2425V33.3585H78.305V31.3585ZM76.1733 31.9928L71.2812 19.5439L69.4198 20.2754L74.3118 32.7243L76.1733 31.9928ZM70.3505 18.9097H70.1815V20.9097H70.3505V18.9097ZM69.1815 19.9097V32.4878H71.1815V19.9097H69.1815ZM70.1815 31.4878H65.3888V33.4878H70.1815V31.4878ZM66.3888 32.4878V12.1242H64.3888V32.4878H66.3888ZM91.2287 32.4878H90.2287V33.4878H91.2287V32.4878ZM91.2287 12.1242V11.1242H90.2287V12.1242H91.2287ZM103.588 13.019L103.114 13.8994L103.12 13.9027L103.588 13.019ZM106.163 15.4949L105.294 15.9893L105.295 15.9916L106.163 15.4949ZM106.143 22.8628L105.28 22.3579L105.279 22.3596L106.143 22.8628ZM103.528 25.2989L103.982 26.1902L103.982 26.1902L103.528 25.2989ZM94.3011 26.1639H93.3011V27.1639H94.3011V26.1639ZM94.3011 22.2861V21.2861H93.3011V22.2861H94.3011ZM100.436 21.8983L99.9795 21.0086L99.9747 21.0111L100.436 21.8983ZM101.58 20.8145L102.453 21.3012L102.456 21.2959L101.58 20.8145ZM101.58 17.5432L100.706 18.0299L100.709 18.0352L101.58 17.5432ZM100.436 16.4693L99.9889 17.3638L99.9889 17.3638L100.436 16.4693ZM96.1506 16.0915V15.0915H95.1506V16.0915H96.1506ZM96.1506 32.4878V33.4878H97.1506V32.4878H96.1506ZM92.2287 32.4878V12.1242H90.2287V32.4878H92.2287ZM91.2287 13.1242H99.6406V11.1242H91.2287V13.1242ZM99.6406 13.1242C101.035 13.1242 102.18 13.3964 103.114 13.8993L104.062 12.1387C102.782 11.4485 101.296 11.1242 99.6406 11.1242V13.1242ZM103.12 13.9027C104.071 14.4068 104.788 15.0996 105.294 15.9893L107.033 15.0005C106.332 13.769 105.332 12.8113 104.056 12.1354L103.12 13.9027ZM105.295 15.9916C105.8 16.8727 106.068 17.9227 106.068 19.1739H108.068C108.068 17.6277 107.733 16.225 107.031 14.9982L105.295 15.9916ZM106.068 19.1739C106.068 20.4289 105.794 21.479 105.28 22.3579L107.007 23.3677C107.726 22.1387 108.068 20.7294 108.068 19.1739H106.068ZM105.279 22.3596C104.771 23.2324 104.046 23.9136 103.075 24.4076L103.982 26.1902C105.278 25.5308 106.296 24.5879 107.008 23.366L105.279 22.3596ZM103.075 24.4076C102.11 24.8985 100.927 25.1639 99.4915 25.1639V27.1639C101.172 27.1639 102.68 26.8526 103.982 26.1902L103.075 24.4076ZM99.4915 25.1639H94.3011V27.1639H99.4915V25.1639ZM95.3011 26.1639V22.2861H93.3011V26.1639H95.3011ZM94.3011 23.2861H98.5767V21.2861H94.3011V23.2861ZM98.5767 23.2861C99.4296 23.2861 100.219 23.1383 100.897 22.7855L99.9747 21.0111C99.6587 21.1754 99.2087 21.2861 98.5767 21.2861V23.2861ZM100.893 22.788C101.56 22.4455 102.092 21.9494 102.453 21.3012L100.706 20.3278C100.55 20.6076 100.32 20.834 99.9795 21.0086L100.893 22.788ZM102.456 21.2959C102.808 20.6556 102.967 19.9381 102.967 19.1739H100.967C100.967 19.6558 100.868 20.0321 100.703 20.3331L102.456 21.2959ZM102.967 19.1739C102.967 18.4059 102.809 17.6859 102.45 17.0511L100.709 18.0352C100.867 18.3153 100.967 18.6823 100.967 19.1739H102.967ZM102.453 17.0565C102.091 16.4059 101.556 15.911 100.883 15.5749L99.9889 17.3638C100.324 17.5314 100.551 17.7524 100.706 18.0299L102.453 17.0565ZM100.883 15.5749C100.205 15.2357 99.422 15.0915 98.5767 15.0915V17.0915C99.203 17.0915 99.6598 17.1992 99.9889 17.3638L100.883 15.5749ZM98.5767 15.0915H96.1506V17.0915H98.5767V15.0915ZM95.1506 16.0915V32.4878H97.1506V16.0915H95.1506ZM96.1506 31.4878H91.2287V33.4878H96.1506V31.4878ZM114.416 12.1242H115.416V11.1242H114.416V12.1242ZM114.416 32.4878V33.4878H115.416V32.4878H114.416ZM109.494 32.4878H108.494V33.4878H109.494V32.4878ZM109.494 12.1242V11.1242H108.494V12.1242H109.494ZM113.416 12.1242V32.4878H115.416V12.1242H113.416ZM114.416 31.4878H109.494V33.4878H114.416V31.4878ZM110.494 32.4878V12.1242H108.494V32.4878H110.494ZM109.494 13.1242H114.416V11.1242H109.494V13.1242ZM182.962 12.1242H183.962V11.1242H182.962V12.1242ZM182.962 32.4878V33.4878H183.962V32.4878H182.962ZM178.786 32.4878L177.963 33.0554L178.261 33.4878H178.786V32.4878ZM170.682 20.735L171.505 20.1673L171.207 19.735H170.682V20.735ZM170.553 20.735V19.735H169.553V20.735H170.553ZM170.553 32.4878V33.4878H171.553V32.4878H170.553ZM165.631 32.4878H164.631V33.4878H165.631V32.4878ZM165.631 12.1242V11.1242H164.631V12.1242H165.631ZM169.867 12.1242L170.693 11.5601L170.395 11.1242H169.867V12.1242ZM177.881 23.8571L177.055 24.4211L177.353 24.8571H177.881V23.8571ZM178.05 23.8571V24.8571H179.05V23.8571H178.05ZM178.05 12.1242V11.1242H177.05V12.1242H178.05ZM181.962 12.1242V32.4878H183.962V12.1242H181.962ZM182.962 31.4878H178.786V33.4878H182.962V31.4878ZM179.609 31.9201L171.505 20.1673L169.859 21.3026L177.963 33.0554L179.609 31.9201ZM170.682 19.735H170.553V21.735H170.682V19.735ZM169.553 20.735V32.4878H171.553V20.735H169.553ZM170.553 31.4878H165.631V33.4878H170.553V31.4878ZM166.631 32.4878V12.1242H164.631V32.4878H166.631ZM165.631 13.1242H169.867V11.1242H165.631V13.1242ZM169.041 12.6882L177.055 24.4211L178.707 23.2931L170.693 11.5601L169.041 12.6882ZM177.881 24.8571H178.05V22.8571H177.881V24.8571ZM179.05 23.8571V12.1242H177.05V23.8571H179.05ZM178.05 13.1242H182.962V11.1242H178.05V13.1242Z" fill="#D5D5D5"/>
<path d="M161.707 22.5C161.707 34.6587 152.026 44.5 140.103 44.5C128.18 44.5 118.5 34.6587 118.5 22.5C118.5 10.3413 128.18 0.5 140.103 0.5C152.026 0.5 161.707 10.3413 161.707 22.5Z" fill="#525252" stroke="#D5D5D5"/>
<path d="M140.318 30.1502L140.095 30.0457L139.875 30.1604L128.337 36.1827L131.207 25.4113L131.298 25.0691L131.006 24.8711L120.858 17.9823L134.159 16.7488L134.438 16.7228L134.563 16.4703L139.7 6.09047L145.174 16.225L145.307 16.4716L145.588 16.4846L158.919 17.1025L149.005 24.4551L148.721 24.6663L148.823 25.0041L152.046 35.6347L140.318 30.1502Z" fill="#FFBF1C" stroke="#D5D5D5"/>
</svg>
